<svg xmlns="http://www.w3.org/2000/svg" xmlns:xlink="http://www.w3.org/1999/xlink" viewBox="0 0 1366 752.09"><defs><style>.cls-1{fill:url(#linear-gradient);}</style><linearGradient id="linear-gradient" x1="1087.74" y1="147.14" x2="44.4" y2="703.52" gradientUnits="userSpaceOnUse"><stop offset="0" stop-color="#ddebde"/><stop offset="1" stop-color="#ebddea"/></linearGradient></defs><g id="Layer_2" data-name="Layer 2"><g id="Layer_1-2" data-name="Layer 1"><path class="cls-1" d="M233.07,741.6c9.47,4.14,19,8.84,29.64,9.95,31.86,3.31,68.39-22.82,99.87-28.93,44.24-8.58,89.76-9.73,134.11-.74,21.16,4.29,42,10.69,63.79,11.25,27,.69,52.84-7.58,79.12-12.49,60.6-11.33,126.19-4.3,181,19.41,13.62,5.88,27.78,13,43.17,11.93,11-.75,20.86-5.64,30.58-9.93,60.65-26.75,134.22-33.77,200.91-19.16,18.2,4,36.12,9.53,55,10.33,37.69,1.6,71.34-15.5,108.34-17.74,8.77-.53,17.8-.6,26.94-.31a433.3,433.3,0,0,1,71.37,8.78c3,.63,6.08,1.3,9.11,2V317s.5-159.5-288.5-159.5S683,0,683,0H0V743C74,715.37,158.35,709,233.07,741.6Z"/></g></g></svg>